<svg xmlns="http://www.w3.org/2000/svg" viewBox="0 0 32 32" fill="none">
  <rect width="32" height="32" rx="8" fill="#0a0a0a"/>
  <path d="M8 9C8 7.89543 8.89543 7 10 7H22C23.1046 7 24 7.89543 24 9V19C24 20.1046 23.1046 21 22 21H17L11 26V21H10C8.89543 21 8 20.1046 8 19V9Z" fill="#10b981" fill-opacity="0.2" stroke="#10b981" stroke-width="1.5" stroke-linecap="round" stroke-linejoin="round"/>
  <path d="M15.5 12.5C15.5 12.2239 15.7239 12 16 12H17.5C17.7761 12 18 12.2239 18 12.5C18 12.7761 17.7761 13 17.5 13H16C15.7239 13 15.5 12.7761 15.5 12.5Z" fill="#10b981"/>
</svg>